<svg xmlns="http://www.w3.org/2000/svg" version="1.1" xmlns:xlink="http://www.w3.org/1999/xlink" xmlns:svgjs="http://svgjs.dev/svgjs" width="1920" height="1080" preserveAspectRatio="none" viewBox="0 0 1920 1080">
    <g mask="url(&quot;#SvgjsMask1161&quot;)" fill="none">
        <rect width="1920" height="1080" x="0" y="0" fill="rgba(255, 255, 255, 1)"></rect>
        <path d="M39.71 162.61L104.66 200.11L104.66 275.11L39.71 312.61L-25.24 275.11L-25.24 200.11zM234.57 50.11L299.52 87.61L299.52 162.61L234.57 200.11L169.62 162.61L169.62 87.61zM234.57 275.11L299.52 312.61L299.52 387.61L234.57 425.11L169.62 387.61L169.62 312.61zM169.62 612.61L234.57 650.11L234.57 725.11L169.62 762.61L104.66 725.11L104.66 650.11zM299.52 -62.39L364.48 -24.89L364.48 50.11L299.52 87.61L234.57 50.11L234.57 -24.89zM299.52 162.61L364.48 200.11L364.48 275.11L299.52 312.61L234.57 275.11L234.57 200.11zM429.43 612.61L494.39 650.11L494.39 725.11L429.43 762.61L364.48 725.11L364.48 650.11zM494.39 950.11L559.34 987.61L559.34 1062.61L494.39 1100.11L429.43 1062.61L429.43 987.61zM624.29 50.11L689.25 87.61L689.25 162.61L624.29 200.11L559.34 162.61L559.34 87.61zM559.34 387.61L624.29 425.11L624.29 500.11L559.34 537.61L494.39 500.11L494.39 425.11zM689.25 -62.39L754.2 -24.89L754.2 50.11L689.25 87.61L624.29 50.11L624.29 -24.89zM754.2 50.11L819.16 87.61L819.16 162.61L754.2 200.11L689.25 162.61L689.25 87.61zM754.2 725.11L819.16 762.61L819.16 837.61L754.2 875.11L689.25 837.61L689.25 762.61zM689.25 837.61L754.2 875.11L754.2 950.11L689.25 987.61L624.29 950.11L624.29 875.11zM884.11 500.11L949.06 537.61L949.06 612.61L884.11 650.11L819.15 612.61L819.15 537.61zM819.15 612.61L884.11 650.11L884.11 725.11L819.15 762.61L754.2 725.11L754.2 650.11zM884.11 725.11L949.06 762.61L949.06 837.61L884.11 875.11L819.15 837.61L819.15 762.61zM1014.02 50.11L1078.97 87.61L1078.97 162.61L1014.02 200.11L949.06 162.61L949.06 87.61zM949.06 837.61L1014.02 875.11L1014.02 950.11L949.06 987.61L884.11 950.11L884.11 875.11zM1143.92 50.11L1208.88 87.61L1208.88 162.61L1143.92 200.11L1078.97 162.61L1078.97 87.61zM1078.97 612.61L1143.92 650.11L1143.92 725.11L1078.97 762.61L1014.02 725.11L1014.02 650.11zM1078.97 837.61L1143.92 875.11L1143.92 950.11L1078.97 987.61L1014.02 950.11L1014.02 875.11zM1273.83 50.11L1338.78 87.61L1338.78 162.61L1273.83 200.11L1208.88 162.61L1208.88 87.61zM1208.88 162.61L1273.83 200.11L1273.83 275.11L1208.88 312.61L1143.92 275.11L1143.92 200.11zM1273.83 725.11L1338.78 762.61L1338.78 837.61L1273.83 875.11L1208.88 837.61L1208.88 762.61zM1338.79 162.61L1403.74 200.11L1403.74 275.11L1338.79 312.61L1273.83 275.11L1273.83 200.11zM1403.74 275.11L1468.69 312.61L1468.69 387.61L1403.74 425.11L1338.79 387.61L1338.79 312.61zM1403.74 500.11L1468.69 537.61L1468.69 612.61L1403.74 650.11L1338.79 612.61L1338.79 537.61zM1338.79 1062.61L1403.74 1100.11L1403.74 1175.11L1338.79 1212.61L1273.83 1175.11L1273.83 1100.11zM1533.65 725.11L1598.6 762.61L1598.6 837.61L1533.65 875.11L1468.69 837.61L1468.69 762.61zM1663.55 50.11L1728.51 87.61L1728.51 162.61L1663.55 200.11L1598.6 162.61L1598.6 87.61zM1598.6 162.61L1663.55 200.11L1663.55 275.11L1598.6 312.61L1533.65 275.11L1533.65 200.11zM1598.6 387.61L1663.55 425.11L1663.55 500.11L1598.6 537.61L1533.65 500.11L1533.65 425.11zM1663.55 500.11L1728.51 537.61L1728.51 612.61L1663.55 650.11L1598.6 612.61L1598.6 537.61zM1728.51 387.61L1793.46 425.11L1793.46 500.11L1728.51 537.61L1663.55 500.11L1663.55 425.11zM1858.41 612.61L1923.37 650.11L1923.37 725.11L1858.41 762.61L1793.46 725.11L1793.46 650.11zM1858.41 1062.61L1923.37 1100.11L1923.37 1175.11L1858.41 1212.61L1793.46 1175.11L1793.46 1100.11z" stroke="rgba(34, 124, 157, 1)" stroke-width="2"></path>
        <path d="M144.13 113.74L230.73 163.74L230.73 263.74L144.13 313.74L57.52 263.74L57.52 163.74zM144.13 1013.74L230.73 1063.74L230.73 1163.74L144.13 1213.74L57.52 1163.74L57.52 1063.74zM750.36 -36.26L836.97 13.74L836.97 113.74L750.36 163.74L663.75 113.74L663.75 13.74zM836.97 413.74L923.57 463.74L923.57 563.74L836.97 613.74L750.36 563.74L750.36 463.74zM836.97 713.74L923.57 763.74L923.57 863.74L836.97 913.74L750.36 863.74L750.36 763.74zM1356.6 413.74L1443.2 463.74L1443.2 563.74L1356.6 613.74L1269.99 563.74L1269.99 463.74zM1529.81 413.74L1616.41 463.74L1616.41 563.74L1529.81 613.74L1443.2 563.74L1443.2 463.74zM1443.2 863.74L1529.81 913.74L1529.81 1013.74L1443.2 1063.74L1356.6 1013.74L1356.6 913.74zM1616.41 263.74L1703.02 313.74L1703.02 413.74L1616.41 463.74L1529.81 413.74L1529.81 313.74zM1616.41 563.74L1703.02 613.74L1703.02 713.74L1616.41 763.74L1529.81 713.74L1529.81 613.74zM1789.62 863.74L1876.23 913.74L1876.23 1013.74L1789.62 1063.74L1703.02 1013.74L1703.02 913.74zM1962.83 -36.26L2049.44 13.74L2049.44 113.74L1962.83 163.74L1876.23 113.74L1876.23 13.74z" stroke="rgba(6, 80, 156, 0.93)" stroke-width="2"></path>
    </g>
    <defs>
        <mask id="SvgjsMask1161">
            <rect width="1920" height="1080" fill="#ffffff"></rect>
        </mask>
    </defs>
</svg>